<?xml version="1.0" encoding="utf-8"?>
<!-- Svg Vector Icons : http://www.onlinewebfonts.com/icon -->
<!DOCTYPE svg PUBLIC "-//W3C//DTD SVG 1.1//EN" "http://www.w3.org/Graphics/SVG/1.1/DTD/svg11.dtd">
<svg version="1.1" xmlns="http://www.w3.org/2000/svg" xmlns:xlink="http://www.w3.org/1999/xlink" x="0px" y="0px" viewBox="0 0 1000 1000" enable-background="new 0 0 1000 1000" xml:space="preserve">
<metadata> Svg Vector Icons : http://www.onlinewebfonts.com/icon </metadata>
<g><path d="M563.9,830.2h127.8v-277H563.9V830.2z M10,894.1v63.9h980v-63.9H10z M180.4,595.9H52.6v234.3h127.8L180.4,595.9L180.4,595.9z M819.6,830.2h127.8V382.8H819.6V830.2z M308.3,830.2h127.8V446.8H308.3V830.2z M95.4,552.4l242-272.6l285.3,130.7l23.1-31.2l202-224l99.6,99.6v-213h-213l78.6,78.6L614.7,340.2L326,207.7l-37,50l0.6,0.3L53.3,523.8L95.4,552.4z"/></g>
</svg>